<svg width="1600" height="1000" viewBox="0 0 1600 1000" fill="none" xmlns="http://www.w3.org/2000/svg">
  <rect width="1600" height="1000" fill="#84BFF1"/>
  <rect y="560" width="1600" height="440" fill="#CFE8FF"/>
  <circle cx="160" cy="168" r="98" fill="#FFFFFF" fill-opacity="0.18"/>
  <circle cx="1402" cy="208" r="124" fill="#FFFFFF" fill-opacity="0.14"/>
  <circle cx="1262" cy="804" r="152" fill="#FFFFFF" fill-opacity="0.11"/>
  <circle cx="300" cy="760" r="110" fill="#FFFFFF" fill-opacity="0.12"/>
  <circle cx="298" cy="498" r="174" stroke="#FFFFFF" stroke-opacity="0.18" stroke-width="22"/>
  <path d="M124 498H472" stroke="#FFFFFF" stroke-opacity="0.18" stroke-width="22"/>
  <circle cx="298" cy="498" r="40" stroke="#FFFFFF" stroke-opacity="0.22" stroke-width="18"/>
  <circle cx="1318" cy="322" r="140" stroke="#FFFFFF" stroke-opacity="0.15" stroke-width="18"/>
  <path d="M1178 322H1458" stroke="#FFFFFF" stroke-opacity="0.15" stroke-width="18"/>
  <circle cx="1318" cy="322" r="32" stroke="#FFFFFF" stroke-opacity="0.2" stroke-width="16"/>
  <path d="M0 870C182 780 338 750 529 750C733 750 892 832 1070 832C1260 832 1444 754 1600 696V1000H0V870Z" fill="#6CCF85"/>
  <path d="M0 900C170 820 358 810 530 810C704 810 867 874 1048 874C1236 874 1422 794 1600 744V1000H0V900Z" fill="#4FB869"/>
  <path d="M0 952C216 884 454 886 652 906C860 928 1060 972 1254 950C1388 936 1508 896 1600 860V1000H0V952Z" fill="#2D8F4C"/>
  <path d="M112 698L144 642L176 698H112Z" fill="#FFDD57"/>
  <path d="M186 668L215 620L248 668H186Z" fill="#FFD056"/>
  <path d="M1248 666L1288 602L1332 666H1248Z" fill="#FFDD57"/>
  <path d="M1344 716L1376 662L1408 716H1344Z" fill="#FFD056"/>
</svg>
